<svg xmlns="http://www.w3.org/2000/svg" width="90" height="90" viewBox="0 0 90 90">
    <path fill="#1B1B1B" fill-rule="evenodd" d="M45 90C20.188 90 0 69.812 0 45S20.188 0 45 0s45 20.188 45 45-20.188 45-45 45zm0-86.25C22.254 3.75 3.75 22.254 3.75 45S22.254 86.25 45 86.25 86.25 67.746 86.25 45 67.746 3.75 45 3.75zm-4.01 57.527a1.874 1.874 0 0 1-1.332.598 1.896 1.896 0 0 1-1.357-.54L23.059 48.21a1.875 1.875 0 1 1 2.632-2.67L39.56 57.31l26.569-28.587a1.875 1.875 0 0 1 2.745 2.554l-27.884 30z"/>
</svg>
