<svg xmlns="http://www.w3.org/2000/svg" width="48" height="48" viewBox="0 0 48 48">
    <path fill="#FF6C75" fill-rule="evenodd" d="M47.582.295a.989.989 0 0 1 .196.294c.015.033.024.066.035.1a.96.96 0 0 1 .047.243c.003.037.006.071.005.108a.993.993 0 0 1-.055.283c-.007.019-.008.04-.016.059l-.003.012-19.823 45.91a.994.994 0 0 1-.915.602.998.998 0 0 1-.845-.466l-9.915-15.749c-.019-.016-.042-.022-.059-.039-.013-.013-.017-.031-.029-.044L.468 22.075a1 1 0 0 1 .115-1.767L46.473.085c.005-.003.011-.003.016-.005.022-.009.045-.01.067-.018a.992.992 0 0 1 .278-.054c.034-.002.067.001.101.003.087.006.169.022.251.049.033.011.064.019.095.033.108.048.21.11.297.196l.002.003h.001l.001.003zM26.887 44.774L43.89 5.396 18.247 31.049l8.64 13.725zM16.825 29.649l25.58-25.59L3.142 21.361l13.683 8.288z"/>
</svg>
