<svg xmlns="http://www.w3.org/2000/svg" width="138" height="21" viewBox="0 0 138 21">
    <path fill="#40444F" fill-rule="evenodd" d="M.616 9.892c0-1.213.215-2.408.644-3.584a9.742 9.742 0 0 1 1.89-3.164A9.683 9.683 0 0 1 6.174.876C7.359.297 8.708.008 10.22.008c1.773 0 3.323.397 4.648 1.19 1.325.793 2.305 1.843 2.94 3.15l-4.172 2.968c-.168-.485-.387-.887-.658-1.204a3.329 3.329 0 0 0-1.89-1.148 4.783 4.783 0 0 0-.98-.112c-.69 0-1.283.154-1.778.462-.495.308-.905.71-1.232 1.204a5.22 5.22 0 0 0-.714 1.68 7.994 7.994 0 0 0-.224 1.862c0 .69.089 1.353.266 1.988.177.635.439 1.195.784 1.68.345.485.765.873 1.26 1.162.495.29 1.06.434 1.694.434.317 0 .644-.042.98-.126.336-.084.658-.224.966-.42.308-.196.588-.448.84-.756s.453-.686.602-1.134l4.452 2.66a5.683 5.683 0 0 1-1.274 1.96 8.098 8.098 0 0 1-1.946 1.456 9.993 9.993 0 0 1-2.324.896 9.908 9.908 0 0 1-2.408.308c-1.381 0-2.65-.294-3.808-.882a9.615 9.615 0 0 1-2.982-2.338c-.83-.97-1.48-2.072-1.946-3.304a10.516 10.516 0 0 1-.7-3.752zM28.7 15.324c.635 0 1.176-.14 1.624-.42.448-.28.812-.649 1.092-1.106.28-.457.485-.985.616-1.582.13-.597.196-1.223.196-1.876V.12h5.46v10.22c0 1.381-.177 2.674-.532 3.878-.355 1.204-.905 2.245-1.652 3.122-.747.877-1.685 1.568-2.814 2.072-1.13.504-2.46.756-3.99.756-1.587 0-2.945-.266-4.074-.798-1.13-.532-2.058-1.246-2.786-2.142-.728-.896-1.26-1.937-1.596-3.122a13.748 13.748 0 0 1-.504-3.766V.12h5.46v10.22c0 .653.065 1.283.196 1.89.13.607.336 1.139.616 1.596.28.457.64.821 1.078 1.092.439.27.975.406 1.61.406zM40.796 20V.12h9.128c.97 0 1.867.2 2.688.602a6.977 6.977 0 0 1 2.114 1.568 7.323 7.323 0 0 1 1.386 2.212c.336.83.504 1.666.504 2.506a7.076 7.076 0 0 1-.756 3.234 6.593 6.593 0 0 1-2.1 2.45L58.24 20h-6.16l-3.78-6.104h-2.044V20h-5.46zm5.46-10.864H49.7c.336 0 .649-.187.938-.56.29-.373.434-.896.434-1.568 0-.69-.168-1.218-.504-1.582-.336-.364-.672-.546-1.008-.546h-3.304v4.256zM58.072 20L65.492.12h4.424L77.308 20H71.54l-1.204-3.892h-5.292L63.868 20h-5.796zm9.632-14.196l-1.848 6.664h3.612l-1.764-6.664zm26.572-.924h-5.712V20h-5.46V4.88h-5.74V.12h16.912v4.76zm16.156 10.36V20H96.264V.12h13.916v4.76h-8.456v2.8h7.224v4.424h-7.224v3.136h8.708zM112.98 20V.12h7.644c1.643 0 3.09.261 4.34.784s2.296 1.232 3.136 2.128a8.936 8.936 0 0 1 1.904 3.15c.43 1.204.644 2.487.644 3.85 0 1.512-.238 2.88-.714 4.102-.476 1.223-1.153 2.268-2.03 3.136-.877.868-1.932 1.54-3.164 2.016-1.232.476-2.604.714-4.116.714h-7.644zm12.124-9.968c0-.765-.103-1.465-.308-2.1a4.69 4.69 0 0 0-.882-1.624 3.98 3.98 0 0 0-1.414-1.05c-.56-.252-1.185-.378-1.876-.378h-2.184v10.36h2.184c.71 0 1.344-.13 1.904-.392a3.978 3.978 0 0 0 1.414-1.092 4.812 4.812 0 0 0 .868-1.652 6.992 6.992 0 0 0 .294-2.072zM132.748 20v-5.152h4.312V20h-4.312z"/>
</svg>
