<svg xmlns="http://www.w3.org/2000/svg" width="48" height="48" viewBox="0 0 48 48">
    <path fill="#FF6C75" fill-rule="evenodd" d="M47.371 41.796l-15.332 6.133a1.003 1.003 0 0 1-.371.071H22a1 1 0 0 1-1-1v-2a1 1 0 0 1 1-1h4a1 1 0 0 1 1 1v1h4.476l10-4h-1.142C37.944 42 36 40.115 36 37.799V28.2c0-2.316 1.944-4.2 4.334-4.2h3.334c.86 0 1.657.251 2.332.672V24c0-12.131-9.869-22-22-22S2 11.869 2 24v.672A4.396 4.396 0 0 1 4.334 24h3.334C10.057 24 12 25.884 12 28.2v9.599C12 40.115 10.057 42 7.668 42H4.334C1.944 42 0 40.115 0 37.799V24C0 10.767 10.767 0 24 0s24 10.767 24 24v16.867a1 1 0 0 1-.629.929zM2 28.6v9.199C2 39.013 3.047 40 4.334 40h3.334C8.954 40 10 39.013 10 37.799V28.2c0-1.213-1.046-2.2-2.332-2.2H4.334C3.047 26 2 26.987 2 28.2v.4zM43.668 26h-3.334C39.047 26 38 26.987 38 28.2v9.599C38 39.013 39.047 40 40.334 40h3.334C44.954 40 46 39.013 46 37.799V28.2c0-1.213-1.046-2.2-2.332-2.2z"/>
</svg>
