<svg xmlns="http://www.w3.org/2000/svg" width="24" height="24" viewBox="0 0 24 24">
    <path fill="#40444F" fill-rule="evenodd" d="M23.611 23.707a.994.994 0 0 1-1.409 0l-7.653-7.682A8.893 8.893 0 0 1 8.959 18C4.015 18-.007 13.963-.007 9.001-.007 4.038 4.015 0 8.959 0c4.944 0 8.966 4.038 8.966 9.001a8.97 8.97 0 0 1-1.967 5.61l7.653 7.682a1.003 1.003 0 0 1 0 1.414zM8.959 2C5.113 2 1.985 5.141 1.985 9.001 1.985 12.86 5.113 16 8.959 16c3.845 0 6.974-3.14 6.974-6.999C15.933 5.141 12.804 2 8.959 2z"/>
</svg>
