<svg xmlns="http://www.w3.org/2000/svg" width="40" height="48" viewBox="0 0 40 48">
    <path fill="#FF6C75" fill-rule="evenodd" d="M37 48H3c-1.654 0-3-1.346-3-3V19c0-1.654 1.346-3 3-3h5v-4C8 5.383 13.383 0 20 0s12 5.383 12 12v4h5c1.654 0 3 1.346 3 3v26c0 1.654-1.346 3-3 3zM20 2c-5.514 0-10 4.486-10 10v4h20v-4c0-5.514-4.486-10-10-10zm18 17a1 1 0 0 0-1-1H3a1 1 0 0 0-1 1v26a1 1 0 0 0 1 1h34a1 1 0 0 0 1-1V19zM21 31.816V37a1 1 0 1 1-2 0v-5.184A2.996 2.996 0 0 1 17 29c0-1.654 1.346-3 3-3s3 1.346 3 3a2.996 2.996 0 0 1-2 2.816zM20 28a1 1 0 1 0 0 2 1 1 0 0 0 0-2z"/>
</svg>
